<svg id='line' viewBox="0 0 24 24" fill="none" xmlns="http://www.w3.org/2000/svg">
<circle cx="12" cy="12" r="11.8" stroke="white" stroke-width="0.4"/>
<path d="M12.0382 18.8607C11.3333 19.2691 11.3633 18.6677 11.3937 18.4825C11.4117 18.3722 11.4937 17.8545 11.4937 17.8545C11.517 17.6668 11.5417 17.3765 11.4714 17.1913C11.393 16.9875 11.0826 16.8813 10.8545 16.8297C7.49032 16.3633 5 13.8979 5 10.9546C5 7.67134 8.14082 5 12.0002 5C15.8595 5 19 7.67134 19 10.9546C19 14.6419 15.2897 16.9762 12.0382 18.8607ZM9.78725 12.2971C9.78725 12.1003 9.63421 11.9404 9.44617 11.9404H8.49392V9.5934C8.49392 9.39659 8.34088 9.23669 8.15283 9.23669C7.96444 9.23669 7.81174 9.39659 7.81174 9.5934V12.2974C7.81174 12.4946 7.96478 12.6545 8.15283 12.6545H9.44617C9.63421 12.6549 9.78725 12.4942 9.78725 12.2971ZM10.7835 9.5934C10.7835 9.39659 10.6305 9.23669 10.4424 9.23669C10.254 9.23669 10.1013 9.39659 10.1013 9.5934V12.2974C10.1013 12.4946 10.2544 12.6545 10.4424 12.6545C10.6308 12.6545 10.7835 12.4942 10.7835 12.2974V9.5934ZM13.8977 9.5934C13.8977 9.39659 13.7446 9.23669 13.5566 9.23669C13.3682 9.23669 13.2148 9.39659 13.2148 9.5934V11.2666L11.8885 9.37972C11.8245 9.29046 11.7221 9.23704 11.6157 9.23704C11.5791 9.23704 11.5427 9.24266 11.5074 9.25531C11.3677 9.30416 11.274 9.44017 11.274 9.59376V12.2978C11.274 12.4949 11.4274 12.6549 11.6157 12.6549C11.8044 12.6549 11.9575 12.4946 11.9575 12.2978V10.6253L13.2832 12.5122C13.3472 12.6014 13.4492 12.6549 13.5559 12.6549C13.5923 12.6549 13.6289 12.6485 13.6643 12.6362C13.8043 12.5881 13.8977 12.4521 13.8977 12.2978V9.5934ZM15.9909 10.5887H15.0386V9.95012H15.9909C16.1796 9.95012 16.3326 9.79021 16.3326 9.5934C16.3326 9.39659 16.1793 9.23669 15.9909 9.23669H14.6975C14.5092 9.23669 14.3565 9.39659 14.3565 9.5934V12.2967C14.3565 12.4939 14.5098 12.6538 14.6975 12.6538H15.9909C16.1793 12.6538 16.3326 12.4935 16.3326 12.2967C16.3326 12.0999 16.1793 11.94 15.9909 11.94H15.0386V11.3014H15.9909C16.1796 11.3014 16.3326 11.1415 16.3326 10.9447C16.3326 10.7476 16.1793 10.5876 15.9909 10.5876V10.5887Z" fill="white"/>
</svg>
