<svg id="logo" width="239" height="67" viewBox="0 0 239 67" fill="none" xmlns="http://www.w3.org/2000/svg">
<path fill-rule="evenodd" clip-rule="evenodd" d="M30.9616 16.0028C23.3273 15.8668 16.6045 21.0565 14.9757 30.127L14.9755 30.128C14.8465 30.8432 14.4898 31.4953 13.962 31.9913C13.4346 32.487 12.7638 32.8015 12.0482 32.8939L12.0467 32.8941C9.81747 33.1799 7.54885 34.0115 5.85546 35.4302C4.2015 36.8159 3.05129 38.7911 3.00199 41.5589C2.94547 44.7321 4.08375 46.9136 5.85528 48.3512C7.67773 49.8302 10.3226 50.6407 13.4243 50.6959L44.8359 51.2555C52.1465 51.3857 57.922 46.5408 58.044 39.6889C58.1054 36.2424 56.9038 33.583 54.9776 31.6374C53.0269 29.6671 50.2604 28.3605 47.131 27.8148C46.5384 27.7115 45.9815 27.456 45.5171 27.0715C45.0532 26.6873 44.6975 26.1873 44.489 25.6203C42.6856 20.7494 38.0452 16.129 30.9616 16.0028ZM12.023 29.5962C13.8958 19.1682 21.8176 12.8394 31.015 13.0033C39.5614 13.1555 45.1557 18.7783 47.3032 24.5808L47.3046 24.5847C47.3286 24.6502 47.371 24.7115 47.4305 24.7608C47.4901 24.8102 47.5643 24.8451 47.6463 24.8594C51.2528 25.4883 54.6324 27.0247 57.1096 29.5268C59.6113 32.0537 61.1192 35.4962 61.0436 39.7423C60.8864 48.5628 53.4194 54.4088 44.7825 54.255L13.3708 53.6955C9.82767 53.6324 6.46088 52.7063 3.96485 50.6807C1.41791 48.6137 -0.0690844 45.5226 0.00246992 41.5055C0.0682815 37.8107 1.65479 35.0358 3.92885 33.1306C6.16347 31.2584 9.01416 30.2583 11.6652 29.9185L11.8559 31.4058L11.6638 29.9186C11.759 29.9063 11.8439 29.8649 11.9075 29.8052C11.9705 29.746 12.0092 29.6722 12.023 29.5962Z" fill="#E98F00"/>
<path fill-rule="evenodd" clip-rule="evenodd" d="M49.5102 63.5C66.0787 63.5 79.5102 50.0685 79.5102 33.5C79.5102 16.9315 66.0787 3.5 49.5102 3.5C32.9416 3.5 19.5102 16.9315 19.5102 33.5C19.5102 50.0685 32.9416 63.5 49.5102 63.5ZM49.5102 59.8636C64.0704 59.8636 75.8738 48.0602 75.8738 33.5C75.8738 18.9398 64.0704 7.13636 49.5102 7.13636C34.9499 7.13636 23.1465 18.9398 23.1465 33.5C23.1465 48.0602 34.9499 59.8636 49.5102 59.8636Z" fill="#D9D9D9"/>
<path d="M98.8302 3.096H100.072V7.038H98.8302V3.096ZM95.3022 8.316H103.726V9.45H95.3022V8.316ZM105.058 3.816H109.144V5.094H105.058V3.816ZM97.4262 11.502V13.266H101.602V11.502H97.4262ZM96.1842 10.458H102.934V14.31H96.1842V10.458ZM96.7242 14.886L97.8762 14.58C98.0802 14.94 98.2602 15.336 98.4162 15.768C98.5722 16.2 98.6742 16.578 98.7222 16.902L97.4982 17.262C97.4622 16.938 97.3722 16.554 97.2282 16.11C97.0842 15.666 96.9162 15.258 96.7242 14.886ZM101.026 14.49L102.304 14.796C102.112 15.228 101.926 15.648 101.746 16.056C101.578 16.464 101.404 16.824 101.224 17.136L100.144 16.83C100.288 16.494 100.444 16.104 100.612 15.66C100.792 15.216 100.93 14.826 101.026 14.49ZM95.1762 17.658C95.8242 17.586 96.5682 17.502 97.4082 17.406C98.2602 17.31 99.1602 17.208 100.108 17.1C101.068 16.992 102.028 16.878 102.988 16.758L103.006 17.874C102.094 17.994 101.182 18.108 100.27 18.216C99.3582 18.336 98.4822 18.45 97.6422 18.558C96.8022 18.666 96.0402 18.762 95.3562 18.846L95.1762 17.658ZM95.8782 3.762H97.0302V6.246H101.962V3.762H103.15V7.308H95.8782V3.762ZM104.482 3.816H105.76V9.774C105.76 10.518 105.724 11.316 105.652 12.168C105.592 13.02 105.466 13.878 105.274 14.742C105.082 15.606 104.8 16.446 104.428 17.262C104.068 18.066 103.582 18.804 102.97 19.476C102.91 19.38 102.814 19.284 102.682 19.188C102.55 19.104 102.418 19.014 102.286 18.918C102.154 18.834 102.034 18.768 101.926 18.72C102.502 18.084 102.958 17.394 103.294 16.65C103.642 15.906 103.9 15.138 104.068 14.346C104.236 13.554 104.344 12.774 104.392 12.006C104.452 11.226 104.482 10.482 104.482 9.774V3.816ZM108.478 3.816H109.774V16.794C109.774 17.082 109.78 17.316 109.792 17.496C109.804 17.664 109.828 17.766 109.864 17.802C109.936 17.874 110.026 17.91 110.134 17.91C110.182 17.91 110.248 17.91 110.332 17.91C110.416 17.91 110.488 17.91 110.548 17.91C110.704 17.91 110.812 17.874 110.872 17.802C110.92 17.754 110.956 17.688 110.98 17.604C111.004 17.508 111.028 17.37 111.052 17.19C111.064 16.998 111.07 16.704 111.07 16.308C111.082 15.912 111.094 15.45 111.106 14.922C111.238 15.042 111.394 15.15 111.574 15.246C111.754 15.33 111.928 15.402 112.096 15.462C112.096 15.762 112.09 16.086 112.078 16.434C112.066 16.77 112.048 17.082 112.024 17.37C112.012 17.646 111.988 17.85 111.952 17.982C111.916 18.21 111.856 18.396 111.772 18.54C111.7 18.684 111.604 18.804 111.484 18.9C111.376 18.984 111.244 19.044 111.088 19.08C110.944 19.116 110.782 19.134 110.602 19.134C110.494 19.134 110.356 19.134 110.188 19.134C110.032 19.134 109.906 19.134 109.81 19.134C109.642 19.134 109.468 19.104 109.288 19.044C109.12 18.996 108.97 18.912 108.838 18.792C108.754 18.708 108.682 18.594 108.622 18.45C108.574 18.318 108.538 18.114 108.514 17.838C108.49 17.562 108.478 17.172 108.478 16.668V3.816ZM113.68 3.744H121.474V4.59H113.68V3.744ZM123.22 3.186H126.676V4.104H123.22V3.186ZM122.104 6.498H127.504V7.398H122.104V6.498ZM114.166 5.436H120.988V6.282H114.166V5.436ZM117.028 2.88H118.252V5.904H117.028V2.88ZM117.172 7.344H118.126V9.324H117.172V7.344ZM114.796 7.056H121.096V9.9H114.796V9.09H119.962V7.866H114.796V7.056ZM114.418 7.056H115.552V8.316C115.552 8.7 115.51 9.114 115.426 9.558C115.342 9.99 115.186 10.422 114.958 10.854C114.73 11.274 114.406 11.658 113.986 12.006C113.926 11.934 113.836 11.856 113.716 11.772C113.608 11.676 113.494 11.586 113.374 11.502C113.254 11.418 113.146 11.352 113.05 11.304C113.638 10.848 114.01 10.35 114.166 9.81C114.334 9.258 114.418 8.754 114.418 8.298V7.056ZM122.752 3.186H123.832V3.942C123.832 4.386 123.712 4.854 123.472 5.346C123.232 5.826 122.77 6.252 122.086 6.624C122.026 6.552 121.942 6.468 121.834 6.372C121.726 6.276 121.612 6.186 121.492 6.102C121.384 6.018 121.282 5.958 121.186 5.922C121.834 5.61 122.254 5.28 122.446 4.932C122.65 4.572 122.752 4.23 122.752 3.906V3.186ZM125.866 3.186H126.982V4.914C126.982 5.058 127 5.154 127.036 5.202C127.084 5.25 127.174 5.274 127.306 5.274C127.342 5.274 127.414 5.274 127.522 5.274C127.63 5.274 127.744 5.274 127.864 5.274C127.984 5.274 128.062 5.274 128.098 5.274C128.194 5.274 128.266 5.25 128.314 5.202C128.374 5.142 128.416 5.028 128.44 4.86C128.464 4.68 128.476 4.41 128.476 4.05C128.596 4.134 128.746 4.212 128.926 4.284C129.106 4.344 129.274 4.392 129.43 4.428C129.382 5.112 129.274 5.574 129.106 5.814C128.95 6.054 128.674 6.174 128.278 6.174C128.206 6.174 128.092 6.174 127.936 6.174C127.78 6.174 127.624 6.174 127.468 6.174C127.312 6.174 127.204 6.174 127.144 6.174C126.652 6.174 126.316 6.09 126.136 5.922C125.956 5.754 125.866 5.418 125.866 4.914V3.186ZM127.324 6.498H127.558L127.774 6.462L128.476 6.732C128.128 7.452 127.624 8.052 126.964 8.532C126.316 9.012 125.572 9.396 124.732 9.684C123.904 9.972 123.04 10.194 122.14 10.35C122.08 10.206 121.996 10.044 121.888 9.864C121.78 9.684 121.678 9.54 121.582 9.432C122.398 9.336 123.19 9.174 123.958 8.946C124.726 8.718 125.41 8.418 126.01 8.046C126.61 7.662 127.048 7.2 127.324 6.66V6.498ZM123.706 7.254C124.066 7.734 124.546 8.172 125.146 8.568C125.746 8.952 126.43 9.276 127.198 9.54C127.978 9.792 128.794 9.984 129.646 10.116C129.526 10.236 129.394 10.386 129.25 10.566C129.118 10.746 129.01 10.914 128.926 11.07C128.062 10.902 127.234 10.656 126.442 10.332C125.65 9.996 124.942 9.6 124.318 9.144C123.694 8.676 123.184 8.148 122.788 7.56L123.706 7.254ZM125.596 10.35L126.604 11.16C125.908 11.28 125.128 11.388 124.264 11.484C123.4 11.568 122.494 11.64 121.546 11.7C120.61 11.76 119.662 11.808 118.702 11.844C117.742 11.88 116.812 11.904 115.912 11.916C115.888 11.784 115.846 11.634 115.786 11.466C115.738 11.286 115.684 11.142 115.624 11.034C116.512 11.01 117.418 10.986 118.342 10.962C119.278 10.926 120.19 10.878 121.078 10.818C121.978 10.758 122.812 10.692 123.58 10.62C124.36 10.536 125.032 10.446 125.596 10.35ZM113.914 12.654H129.106V13.626H113.914V12.654ZM120.826 11.286H122.104V14.904H120.826V11.286ZM119.944 12.924L120.898 13.374C120.514 13.734 120.052 14.082 119.512 14.418C118.972 14.742 118.396 15.048 117.784 15.336C117.172 15.624 116.548 15.882 115.912 16.11C115.276 16.338 114.67 16.53 114.094 16.686C114.01 16.542 113.896 16.38 113.752 16.2C113.608 16.02 113.47 15.876 113.338 15.768C113.914 15.636 114.508 15.474 115.12 15.282C115.744 15.078 116.356 14.856 116.956 14.616C117.556 14.364 118.114 14.094 118.63 13.806C119.146 13.518 119.584 13.224 119.944 12.924ZM122.95 12.924C123.418 13.344 124.024 13.734 124.768 14.094C125.524 14.454 126.346 14.772 127.234 15.048C128.122 15.312 128.986 15.516 129.826 15.66C129.694 15.768 129.556 15.918 129.412 16.11C129.268 16.302 129.154 16.476 129.07 16.632C128.206 16.44 127.33 16.182 126.442 15.858C125.566 15.534 124.738 15.162 123.958 14.742C123.178 14.31 122.524 13.842 121.996 13.338L122.95 12.924ZM116.416 15.12H126.82V19.386H125.488V15.93H117.694V19.458H116.416V15.12ZM117.226 16.668H126.046V17.388H117.226V16.668ZM117.262 18.162H126.028V18.954H117.262V18.162ZM131.572 3.744H137.422V4.95H131.572V3.744ZM131.194 9.468H138.07V10.692H131.194V9.468ZM134.164 10.062H135.46V17.856C135.46 18.216 135.412 18.498 135.316 18.702C135.22 18.906 135.046 19.062 134.794 19.17C134.542 19.278 134.206 19.344 133.786 19.368C133.378 19.392 132.862 19.404 132.238 19.404C132.214 19.224 132.16 19.008 132.076 18.756C131.992 18.516 131.902 18.3 131.806 18.108C132.274 18.12 132.694 18.126 133.066 18.126C133.45 18.126 133.702 18.126 133.822 18.126C133.954 18.114 134.044 18.09 134.092 18.054C134.14 18.018 134.164 17.94 134.164 17.82V10.062ZM137.008 3.744H137.296L137.566 3.672L138.412 4.266C138.136 4.722 137.812 5.19 137.44 5.67C137.068 6.15 136.684 6.606 136.288 7.038C135.892 7.458 135.502 7.83 135.118 8.154C135.034 8.022 134.908 7.884 134.74 7.74C134.584 7.584 134.446 7.452 134.326 7.344C134.662 7.056 134.998 6.72 135.334 6.336C135.67 5.952 135.988 5.556 136.288 5.148C136.588 4.74 136.828 4.362 137.008 4.014V3.744ZM137.692 9.468H137.872L138.07 9.414L138.916 9.648C138.688 10.332 138.436 11.04 138.16 11.772C137.896 12.492 137.644 13.098 137.404 13.59L136.378 13.32C136.522 13.02 136.672 12.666 136.828 12.258C136.984 11.838 137.134 11.406 137.278 10.962C137.434 10.506 137.572 10.074 137.692 9.666V9.468ZM132.094 6.894L132.814 6.012C133.318 6.264 133.834 6.558 134.362 6.894C134.902 7.23 135.406 7.578 135.874 7.938C136.342 8.286 136.72 8.61 137.008 8.91L136.234 9.918C135.958 9.606 135.586 9.27 135.118 8.91C134.662 8.538 134.17 8.178 133.642 7.83C133.114 7.47 132.598 7.158 132.094 6.894ZM138.538 3.726H147.682V4.896H138.538V3.726ZM140.5 10.404V12.168H145.774V10.404H140.5ZM140.5 13.176V14.958H145.774V13.176H140.5ZM140.5 7.668V9.396H145.774V7.668H140.5ZM139.24 6.606H147.07V16.002H139.24V6.606ZM142.408 4.284L143.938 4.482C143.794 4.998 143.644 5.52 143.488 6.048C143.332 6.576 143.182 7.032 143.038 7.416L141.832 7.182C141.904 6.906 141.976 6.6 142.048 6.264C142.132 5.916 142.204 5.568 142.264 5.22C142.324 4.872 142.372 4.56 142.408 4.284ZM141.04 16.326L142.21 17.028C141.886 17.34 141.496 17.652 141.04 17.964C140.584 18.276 140.098 18.564 139.582 18.828C139.078 19.092 138.586 19.314 138.106 19.494C137.998 19.374 137.854 19.224 137.674 19.044C137.494 18.864 137.332 18.714 137.188 18.594C137.668 18.414 138.154 18.204 138.646 17.964C139.138 17.712 139.594 17.448 140.014 17.172C140.434 16.884 140.776 16.602 141.04 16.326ZM143.83 17.118L144.838 16.416C145.21 16.62 145.594 16.86 145.99 17.136C146.398 17.412 146.782 17.688 147.142 17.964C147.514 18.24 147.82 18.492 148.06 18.72L146.98 19.494C146.764 19.266 146.476 19.014 146.116 18.738C145.768 18.462 145.39 18.18 144.982 17.892C144.574 17.604 144.19 17.346 143.83 17.118ZM155.206 5.904H165.646V7.182H155.206V5.904ZM158.77 9.918H163.792V11.16H158.77V9.918ZM159.688 2.862H161.038V6.372H159.688V2.862ZM163.324 9.918H164.656C164.656 9.918 164.656 9.96 164.656 10.044C164.656 10.116 164.656 10.206 164.656 10.314C164.656 10.41 164.656 10.488 164.656 10.548C164.608 11.94 164.554 13.128 164.494 14.112C164.434 15.084 164.368 15.888 164.296 16.524C164.236 17.16 164.158 17.658 164.062 18.018C163.966 18.378 163.846 18.636 163.702 18.792C163.534 18.996 163.354 19.14 163.162 19.224C162.97 19.308 162.736 19.362 162.46 19.386C162.196 19.422 161.836 19.434 161.38 19.422C160.936 19.422 160.474 19.41 159.994 19.386C159.982 19.182 159.94 18.954 159.868 18.702C159.796 18.462 159.7 18.246 159.58 18.054C160.072 18.09 160.528 18.114 160.948 18.126C161.38 18.138 161.686 18.144 161.866 18.144C162.166 18.156 162.388 18.084 162.532 17.928C162.664 17.772 162.778 17.43 162.874 16.902C162.97 16.362 163.054 15.552 163.126 14.472C163.198 13.38 163.264 11.946 163.324 10.17V9.918ZM158.158 6.624H159.508C159.472 7.992 159.394 9.312 159.274 10.584C159.166 11.844 158.95 13.026 158.626 14.13C158.314 15.234 157.834 16.236 157.186 17.136C156.55 18.024 155.68 18.774 154.576 19.386C154.492 19.23 154.36 19.056 154.18 18.864C154 18.672 153.832 18.516 153.676 18.396C154.708 17.832 155.518 17.142 156.106 16.326C156.706 15.498 157.144 14.574 157.42 13.554C157.708 12.534 157.894 11.442 157.978 10.278C158.074 9.102 158.134 7.884 158.158 6.624ZM149.986 3.654H154.576V4.878H151.264V19.44H149.986V3.654ZM154.18 3.654H154.414L154.63 3.582L155.548 4.14C155.368 4.644 155.164 5.184 154.936 5.76C154.72 6.324 154.498 6.888 154.27 7.452C154.054 8.016 153.838 8.544 153.622 9.036C154.318 9.804 154.774 10.524 154.99 11.196C155.218 11.856 155.332 12.474 155.332 13.05C155.332 13.542 155.272 13.974 155.152 14.346C155.044 14.718 154.858 14.994 154.594 15.174C154.462 15.27 154.312 15.348 154.144 15.408C153.976 15.468 153.802 15.51 153.622 15.534C153.43 15.546 153.214 15.558 152.974 15.57C152.746 15.57 152.524 15.564 152.308 15.552C152.296 15.372 152.26 15.168 152.2 14.94C152.14 14.7 152.062 14.496 151.966 14.328C152.182 14.34 152.386 14.346 152.578 14.346C152.77 14.346 152.944 14.346 153.1 14.346C153.328 14.346 153.532 14.286 153.712 14.166C153.856 14.07 153.952 13.908 154 13.68C154.06 13.44 154.09 13.182 154.09 12.906C154.09 12.402 153.976 11.838 153.748 11.214C153.52 10.59 153.064 9.918 152.38 9.198C152.548 8.79 152.716 8.352 152.884 7.884C153.064 7.404 153.232 6.93 153.388 6.462C153.544 5.994 153.688 5.556 153.82 5.148C153.964 4.728 154.084 4.356 154.18 4.032V3.654ZM169.75 18.162H181.486V18.99H169.75V18.162ZM169.75 16.632H181.486V17.442H169.75V16.632ZM167.716 11.574H183.358V12.528H167.716V11.574ZM168.796 13.338H182.476V19.422H181.198V14.166H170.038V19.422H168.796V13.338ZM170.848 4.41L171.73 4.608C171.598 4.992 171.412 5.37 171.172 5.742C170.944 6.102 170.698 6.42 170.434 6.696C170.35 6.636 170.23 6.558 170.074 6.462C169.918 6.366 169.786 6.288 169.678 6.228C169.954 5.976 170.188 5.694 170.38 5.382C170.572 5.07 170.728 4.746 170.848 4.41ZM176.248 6.75H181.54V7.632H176.248V6.75ZM170.758 5.274H174.916V6.03H170.758V5.274ZM169.696 6.822H175.312V7.614H169.696V6.822ZM177.382 3.33H180.784V4.32H177.382V3.33ZM181.288 6.75H181.504L181.72 6.732L182.404 6.984C182.08 7.8 181.612 8.49 181 9.054C180.388 9.606 179.68 10.056 178.876 10.404C178.072 10.752 177.226 11.022 176.338 11.214C176.29 11.082 176.212 10.932 176.104 10.764C175.996 10.584 175.888 10.44 175.78 10.332C176.584 10.188 177.352 9.972 178.084 9.684C178.828 9.396 179.482 9.024 180.046 8.568C180.61 8.112 181.024 7.56 181.288 6.912V6.75ZM177.76 7.542C178.216 8.334 178.954 8.976 179.974 9.468C180.994 9.96 182.182 10.29 183.538 10.458C183.406 10.566 183.274 10.722 183.142 10.926C183.01 11.118 182.908 11.292 182.836 11.448C181.408 11.208 180.166 10.788 179.11 10.188C178.054 9.576 177.262 8.784 176.734 7.812L177.76 7.542ZM176.842 3.33H177.94V4.32C177.94 4.62 177.886 4.932 177.778 5.256C177.682 5.568 177.496 5.868 177.22 6.156C176.956 6.444 176.566 6.708 176.05 6.948C176.014 6.864 175.948 6.768 175.852 6.66C175.756 6.552 175.66 6.444 175.564 6.336C175.468 6.228 175.384 6.15 175.312 6.102C175.744 5.922 176.068 5.736 176.284 5.544C176.512 5.34 176.662 5.136 176.734 4.932C176.806 4.716 176.842 4.5 176.842 4.284V3.33ZM180.226 3.33H181.324V5.04C181.324 5.172 181.324 5.274 181.324 5.346C181.336 5.406 181.36 5.448 181.396 5.472C181.42 5.496 181.45 5.514 181.486 5.526C181.534 5.538 181.588 5.544 181.648 5.544C181.708 5.544 181.786 5.544 181.882 5.544C181.99 5.544 182.08 5.544 182.152 5.544C182.212 5.544 182.278 5.544 182.35 5.544C182.422 5.532 182.47 5.52 182.494 5.508C182.518 5.484 182.548 5.46 182.584 5.436C182.632 5.4 182.662 5.346 182.674 5.274C182.698 5.202 182.71 5.094 182.71 4.95C182.722 4.794 182.734 4.62 182.746 4.428C182.842 4.512 182.968 4.596 183.124 4.68C183.292 4.752 183.442 4.812 183.574 4.86C183.562 5.076 183.538 5.292 183.502 5.508C183.478 5.712 183.442 5.862 183.394 5.958C183.346 6.054 183.28 6.138 183.196 6.21C183.112 6.27 183.022 6.318 182.926 6.354C182.842 6.402 182.734 6.432 182.602 6.444C182.47 6.456 182.344 6.462 182.224 6.462C182.128 6.462 181.99 6.462 181.81 6.462C181.63 6.462 181.498 6.462 181.414 6.462C181.258 6.462 181.096 6.444 180.928 6.408C180.76 6.36 180.628 6.282 180.532 6.174C180.412 6.09 180.328 5.964 180.28 5.796C180.244 5.616 180.226 5.34 180.226 4.968V3.33ZM172.072 5.598H173.008V6.84C173.008 7.152 172.942 7.488 172.81 7.848C172.69 8.208 172.438 8.562 172.054 8.91C171.682 9.246 171.106 9.552 170.326 9.828C170.278 9.708 170.194 9.582 170.074 9.45C169.954 9.318 169.84 9.21 169.732 9.126C170.44 8.934 170.956 8.706 171.28 8.442C171.604 8.178 171.814 7.902 171.91 7.614C172.018 7.326 172.072 7.062 172.072 6.822V5.598ZM173.332 12.078H174.412V13.68C174.412 13.956 174.364 14.232 174.268 14.508C174.184 14.772 174.022 15.03 173.782 15.282C173.542 15.522 173.194 15.756 172.738 15.984C172.282 16.2 171.694 16.392 170.974 16.56C170.902 16.44 170.8 16.302 170.668 16.146C170.548 15.978 170.428 15.846 170.308 15.75C170.968 15.642 171.496 15.51 171.892 15.354C172.3 15.198 172.606 15.024 172.81 14.832C173.014 14.64 173.152 14.448 173.224 14.256C173.296 14.052 173.332 13.854 173.332 13.662V12.078ZM176.464 12.096H177.562V14.724C177.562 14.904 177.604 15.024 177.688 15.084C177.784 15.132 177.982 15.156 178.282 15.156C178.366 15.156 178.51 15.156 178.714 15.156C178.93 15.156 179.17 15.156 179.434 15.156C179.698 15.156 179.944 15.156 180.172 15.156C180.412 15.156 180.58 15.156 180.676 15.156C180.844 15.156 180.958 15.15 181.018 15.138C181.09 15.126 181.132 15.102 181.144 15.066C181.264 15.126 181.408 15.18 181.576 15.228C181.744 15.264 181.894 15.294 182.026 15.318C181.99 15.522 181.882 15.666 181.702 15.75C181.522 15.834 181.228 15.876 180.82 15.876C180.748 15.876 180.586 15.876 180.334 15.876C180.082 15.876 179.806 15.876 179.506 15.876C179.206 15.876 178.93 15.876 178.678 15.876C178.426 15.876 178.264 15.876 178.192 15.876C177.724 15.876 177.364 15.852 177.112 15.804C176.872 15.744 176.704 15.63 176.608 15.462C176.512 15.282 176.464 15.036 176.464 14.724V12.096ZM172.036 8.082L172.594 7.506C173.038 7.722 173.5 7.98 173.98 8.28C174.472 8.58 174.868 8.85 175.168 9.09L174.592 9.738C174.304 9.498 173.92 9.222 173.44 8.91C172.96 8.598 172.492 8.322 172.036 8.082ZM175.582 3.528V4.392H169.3V9.936H175.69V10.818H168.238V3.528H175.582ZM185.626 14.76H201.412V15.894H185.626V14.76ZM188.812 11.592H197.146V12.618H188.812V11.592ZM192.844 13.77H194.176V18.036C194.176 18.384 194.122 18.648 194.014 18.828C193.918 19.02 193.726 19.164 193.438 19.26C193.162 19.344 192.784 19.392 192.304 19.404C191.836 19.428 191.236 19.44 190.504 19.44C190.48 19.26 190.42 19.062 190.324 18.846C190.24 18.642 190.156 18.456 190.072 18.288C190.432 18.3 190.774 18.306 191.098 18.306C191.434 18.306 191.722 18.306 191.962 18.306C192.214 18.306 192.382 18.306 192.466 18.306C192.61 18.294 192.706 18.264 192.754 18.216C192.814 18.18 192.844 18.108 192.844 18V13.77ZM196.84 11.592H197.164L197.452 11.52L198.244 12.204C197.848 12.528 197.398 12.846 196.894 13.158C196.402 13.458 195.892 13.74 195.364 14.004C194.836 14.268 194.32 14.502 193.816 14.706C193.732 14.586 193.624 14.454 193.492 14.31C193.36 14.166 193.246 14.058 193.15 13.986C193.606 13.818 194.062 13.614 194.518 13.374C194.986 13.134 195.424 12.876 195.832 12.6C196.24 12.324 196.576 12.072 196.84 11.844V11.592ZM185.86 9.324H201.232V12.618H199.882V10.368H187.156V12.618H185.86V9.324ZM186.94 3.654L188.614 4.068C188.566 4.188 188.446 4.26 188.254 4.284L188.596 9.864H187.336L186.94 3.654ZM198.928 3.564H200.224C200.188 4.248 200.146 4.98 200.098 5.76C200.05 6.528 199.996 7.278 199.936 8.01C199.876 8.742 199.81 9.372 199.738 9.9H198.442C198.526 9.36 198.598 8.724 198.658 7.992C198.718 7.248 198.772 6.492 198.82 5.724C198.868 4.944 198.904 4.224 198.928 3.564ZM195.994 3.564H199.45V4.5H195.994V3.564ZM190.45 3.042L191.152 3.798C190.66 4.014 190.102 4.206 189.478 4.374C188.866 4.542 188.314 4.68 187.822 4.788L187.21 4.068C187.546 3.996 187.912 3.9 188.308 3.78C188.704 3.66 189.088 3.534 189.46 3.402C189.844 3.258 190.174 3.138 190.45 3.042ZM187.714 5.472H191.008V6.408H187.714V5.472ZM187.804 7.398H191.08V8.316H187.804V7.398ZM196.066 5.472H199.288V6.408H196.066V5.472ZM195.976 7.398H199.18V8.316H195.976V7.398ZM194.356 3.06L195.292 3.348C194.884 3.888 194.374 4.404 193.762 4.896C193.15 5.376 192.538 5.778 191.926 6.102C191.842 6.018 191.722 5.91 191.566 5.778C191.41 5.634 191.272 5.52 191.152 5.436C191.764 5.148 192.358 4.794 192.934 4.374C193.522 3.954 193.996 3.516 194.356 3.06ZM191.656 3.816L192.322 3.24C192.682 3.408 193.054 3.612 193.438 3.852C193.822 4.08 194.176 4.314 194.5 4.554C194.836 4.794 195.106 5.022 195.31 5.238L194.626 5.886C194.422 5.67 194.152 5.442 193.816 5.202C193.492 4.95 193.138 4.704 192.754 4.464C192.382 4.212 192.016 3.996 191.656 3.816ZM194.518 6.03L195.49 6.318C195.07 6.882 194.536 7.422 193.888 7.938C193.252 8.454 192.616 8.886 191.98 9.234C191.896 9.138 191.776 9.024 191.62 8.892C191.464 8.748 191.32 8.634 191.188 8.55C191.836 8.25 192.46 7.884 193.06 7.452C193.66 7.008 194.146 6.534 194.518 6.03ZM191.782 6.876L192.466 6.3C192.826 6.48 193.198 6.69 193.582 6.93C193.966 7.17 194.326 7.422 194.662 7.686C195.01 7.938 195.292 8.178 195.508 8.406L194.77 9.054C194.578 8.826 194.314 8.586 193.978 8.334C193.642 8.07 193.282 7.812 192.898 7.56C192.514 7.296 192.142 7.068 191.782 6.876ZM208.792 12.078H219.718V13.194H208.792V12.078ZM210.214 14.922L210.934 14.112C211.246 14.28 211.576 14.478 211.924 14.706C212.272 14.934 212.596 15.162 212.896 15.39C213.208 15.618 213.466 15.822 213.67 16.002L212.914 16.938C212.722 16.746 212.47 16.53 212.158 16.29C211.858 16.05 211.534 15.81 211.186 15.57C210.85 15.33 210.526 15.114 210.214 14.922ZM216.046 11.034L216.694 10.386C217.03 10.566 217.378 10.776 217.738 11.016C218.11 11.256 218.398 11.478 218.602 11.682L217.918 12.384C217.714 12.18 217.432 11.952 217.072 11.7C216.712 11.448 216.37 11.226 216.046 11.034ZM210.106 12.6H211.348C211.276 13.524 211.15 14.412 210.97 15.264C210.802 16.116 210.532 16.896 210.16 17.604C209.788 18.3 209.26 18.9 208.576 19.404C208.492 19.26 208.366 19.098 208.198 18.918C208.042 18.75 207.892 18.612 207.748 18.504C208.36 18.084 208.822 17.562 209.134 16.938C209.458 16.314 209.692 15.63 209.836 14.886C209.98 14.142 210.07 13.38 210.106 12.6ZM213.346 2.898H214.552C214.54 4.686 214.582 6.366 214.678 7.938C214.774 9.498 214.918 10.914 215.11 12.186C215.302 13.446 215.548 14.538 215.848 15.462C216.16 16.374 216.514 17.076 216.91 17.568C217.306 18.048 217.744 18.288 218.224 18.288C218.488 18.288 218.674 18.15 218.782 17.874C218.89 17.598 218.968 17.052 219.016 16.236C219.148 16.368 219.304 16.488 219.484 16.596C219.664 16.704 219.826 16.788 219.97 16.848C219.898 17.52 219.796 18.042 219.664 18.414C219.532 18.798 219.346 19.068 219.106 19.224C218.866 19.392 218.542 19.476 218.134 19.476C217.414 19.476 216.784 19.194 216.244 18.63C215.716 18.078 215.266 17.298 214.894 16.29C214.534 15.27 214.24 14.07 214.012 12.69C213.784 11.31 213.616 9.792 213.508 8.136C213.412 6.468 213.358 4.722 213.346 2.898ZM217.378 13.464L218.548 13.896C217.96 15.144 217.132 16.236 216.064 17.172C214.996 18.096 213.766 18.846 212.374 19.422C212.29 19.302 212.176 19.158 212.032 18.99C211.888 18.822 211.756 18.678 211.636 18.558C212.98 18.03 214.15 17.328 215.146 16.452C216.142 15.576 216.886 14.58 217.378 13.464ZM214.642 6.012L215.2 5.274C215.596 5.55 215.992 5.874 216.388 6.246C216.796 6.606 217.108 6.936 217.324 7.236L216.73 8.082C216.526 7.782 216.226 7.44 215.83 7.056C215.434 6.66 215.038 6.312 214.642 6.012ZM218.008 8.208L218.836 7.866C219.1 8.286 219.334 8.742 219.538 9.234C219.754 9.714 219.898 10.128 219.97 10.476L219.088 10.89C219.004 10.53 218.86 10.098 218.656 9.594C218.464 9.078 218.248 8.616 218.008 8.208ZM214.876 9.45C215.44 9.426 216.082 9.39 216.802 9.342C217.522 9.294 218.278 9.246 219.07 9.198L219.088 10.116C218.368 10.188 217.672 10.26 217 10.332C216.328 10.392 215.686 10.452 215.074 10.512L214.876 9.45ZM216.73 3.06L217.792 3.474C217.528 3.966 217.252 4.482 216.964 5.022C216.676 5.55 216.406 6 216.154 6.372L215.398 6.012C215.554 5.748 215.71 5.442 215.866 5.094C216.034 4.746 216.196 4.392 216.352 4.032C216.508 3.672 216.634 3.348 216.73 3.06ZM218.224 4.86L219.214 5.328C218.914 5.844 218.584 6.39 218.224 6.966C217.864 7.53 217.504 8.082 217.144 8.622C216.784 9.15 216.436 9.618 216.1 10.026L215.344 9.594C215.668 9.186 216.004 8.706 216.352 8.154C216.712 7.59 217.054 7.02 217.378 6.444C217.714 5.868 217.996 5.34 218.224 4.86ZM208.558 6.012L209.116 5.274C209.512 5.55 209.908 5.874 210.304 6.246C210.712 6.606 211.018 6.936 211.222 7.236L210.646 8.082C210.442 7.782 210.136 7.44 209.728 7.056C209.332 6.66 208.942 6.312 208.558 6.012ZM211.672 8.316L212.5 8.01C212.74 8.418 212.956 8.868 213.148 9.36C213.34 9.852 213.466 10.272 213.526 10.62L212.626 10.998C212.578 10.638 212.464 10.206 212.284 9.702C212.104 9.198 211.9 8.736 211.672 8.316ZM208.612 9.666C209.176 9.63 209.818 9.588 210.538 9.54C211.27 9.48 212.032 9.426 212.824 9.378L212.842 10.332C212.122 10.416 211.42 10.488 210.736 10.548C210.052 10.608 209.41 10.668 208.81 10.728L208.612 9.666ZM210.646 3.06L211.69 3.474C211.426 3.966 211.15 4.488 210.862 5.04C210.574 5.58 210.31 6.036 210.07 6.408L209.296 6.048C209.452 5.772 209.614 5.46 209.782 5.112C209.95 4.764 210.112 4.41 210.268 4.05C210.424 3.678 210.55 3.348 210.646 3.06ZM212.14 4.86L213.112 5.328C212.8 5.856 212.458 6.42 212.086 7.02C211.726 7.608 211.354 8.178 210.97 8.73C210.598 9.282 210.238 9.768 209.89 10.188L209.134 9.774C209.47 9.342 209.824 8.838 210.196 8.262C210.568 7.686 210.922 7.098 211.258 6.498C211.606 5.898 211.9 5.352 212.14 4.86ZM203.446 6.786H208.9V8.046H203.446V6.786ZM205.714 2.88H206.938V19.422H205.714V2.88ZM205.678 7.542L206.47 7.794C206.35 8.49 206.194 9.228 206.002 10.008C205.81 10.776 205.594 11.532 205.354 12.276C205.114 13.02 204.856 13.71 204.58 14.346C204.316 14.982 204.034 15.528 203.734 15.984C203.662 15.816 203.554 15.624 203.41 15.408C203.278 15.192 203.164 15.006 203.068 14.85C203.344 14.442 203.608 13.956 203.86 13.392C204.124 12.828 204.37 12.216 204.598 11.556C204.838 10.896 205.048 10.224 205.228 9.54C205.42 8.844 205.57 8.178 205.678 7.542ZM206.866 8.73C206.962 8.85 207.1 9.06 207.28 9.36C207.472 9.648 207.682 9.972 207.91 10.332C208.138 10.68 208.342 11.01 208.522 11.322C208.714 11.622 208.846 11.838 208.918 11.97L208.216 12.96C208.132 12.744 208.006 12.462 207.838 12.114C207.67 11.766 207.484 11.406 207.28 11.034C207.088 10.65 206.902 10.302 206.722 9.99C206.542 9.666 206.404 9.414 206.308 9.234L206.866 8.73ZM228.016 6.552H237.16V7.542H228.016V6.552ZM227.242 8.766H237.772V9.792H227.242V8.766ZM226.918 15.426H237.988V16.488H226.918V15.426ZM228.808 13.14H236.08V14.112H228.808V13.14ZM227.674 4.356H237.412V5.364H227.674V4.356ZM229.744 2.88H231.004V9.27H229.744V2.88ZM231.796 9.396H233.038V15.876H231.796V9.396ZM233.902 2.88H235.162V9.234H233.902V2.88ZM228.142 10.872H236.08V11.88H229.384V19.386H228.142V10.872ZM235.576 10.872H236.836V18C236.836 18.336 236.788 18.594 236.692 18.774C236.608 18.954 236.452 19.092 236.224 19.188C235.972 19.272 235.642 19.326 235.234 19.35C234.838 19.374 234.346 19.386 233.758 19.386C233.734 19.23 233.68 19.044 233.596 18.828C233.524 18.612 233.446 18.426 233.362 18.27C233.794 18.282 234.19 18.288 234.55 18.288C234.91 18.3 235.144 18.3 235.252 18.288C235.468 18.276 235.576 18.18 235.576 18V10.872ZM221.446 6.786H227.296V8.046H221.446V6.786ZM223.966 2.88H225.208V19.422H223.966V2.88ZM223.93 7.542L224.776 7.812C224.632 8.532 224.452 9.276 224.236 10.044C224.032 10.812 223.798 11.568 223.534 12.312C223.27 13.056 222.988 13.746 222.688 14.382C222.388 15.018 222.076 15.564 221.752 16.02C221.692 15.84 221.59 15.642 221.446 15.426C221.302 15.198 221.176 15.006 221.068 14.85C221.368 14.442 221.662 13.956 221.95 13.392C222.238 12.828 222.508 12.216 222.76 11.556C223.012 10.896 223.24 10.224 223.444 9.54C223.648 8.844 223.81 8.178 223.93 7.542ZM225.118 9.18C225.226 9.3 225.382 9.516 225.586 9.828C225.802 10.128 226.03 10.458 226.27 10.818C226.522 11.178 226.75 11.514 226.954 11.826C227.158 12.126 227.296 12.342 227.368 12.474L226.63 13.482C226.522 13.254 226.372 12.966 226.18 12.618C226 12.27 225.802 11.91 225.586 11.538C225.37 11.166 225.166 10.824 224.974 10.512C224.782 10.188 224.626 9.936 224.506 9.756L225.118 9.18Z" fill="black"/>
<path d="M99.3102 29.44H100.69V33.82H99.3102V29.44ZM95.3902 35.24H104.75V36.5H95.3902V35.24ZM106.23 30.24H110.77V31.66H106.23V30.24ZM97.7502 38.78V40.74H102.39V38.78H97.7502ZM96.3702 37.62H103.87V41.9H96.3702V37.62ZM96.9702 42.54L98.2502 42.2C98.4768 42.6 98.6768 43.04 98.8502 43.52C99.0235 44 99.1368 44.42 99.1902 44.78L97.8302 45.18C97.7902 44.82 97.6902 44.3933 97.5302 43.9C97.3702 43.4067 97.1835 42.9533 96.9702 42.54ZM101.75 42.1L103.17 42.44C102.957 42.92 102.75 43.3867 102.55 43.84C102.363 44.2933 102.17 44.6933 101.97 45.04L100.77 44.7C100.93 44.3267 101.103 43.8933 101.29 43.4C101.49 42.9067 101.643 42.4733 101.75 42.1ZM95.2502 45.62C95.9702 45.54 96.7968 45.4467 97.7302 45.34C98.6768 45.2333 99.6768 45.12 100.73 45C101.797 44.88 102.863 44.7533 103.93 44.62L103.95 45.86C102.937 45.9933 101.923 46.12 100.91 46.24C99.8968 46.3733 98.9235 46.5 97.9902 46.62C97.0568 46.74 96.2102 46.8467 95.4502 46.94L95.2502 45.62ZM96.0302 30.18H97.3102V32.94H102.79V30.18H104.11V34.12H96.0302V30.18ZM105.59 30.24H107.01V36.86C107.01 37.6867 106.97 38.5733 106.89 39.52C106.823 40.4667 106.683 41.42 106.47 42.38C106.257 43.34 105.943 44.2733 105.53 45.18C105.13 46.0733 104.59 46.8933 103.91 47.64C103.843 47.5333 103.737 47.4267 103.59 47.32C103.443 47.2267 103.297 47.1267 103.15 47.02C103.003 46.9267 102.87 46.8533 102.75 46.8C103.39 46.0933 103.897 45.3267 104.27 44.5C104.657 43.6733 104.943 42.82 105.13 41.94C105.317 41.06 105.437 40.1933 105.49 39.34C105.557 38.4733 105.59 37.6467 105.59 36.86V30.24ZM110.03 30.24H111.47V44.66C111.47 44.98 111.477 45.24 111.49 45.44C111.503 45.6267 111.53 45.74 111.57 45.78C111.65 45.86 111.75 45.9 111.87 45.9C111.923 45.9 111.997 45.9 112.09 45.9C112.183 45.9 112.263 45.9 112.33 45.9C112.503 45.9 112.623 45.86 112.69 45.78C112.743 45.7267 112.783 45.6533 112.81 45.56C112.837 45.4533 112.863 45.3 112.89 45.1C112.903 44.8867 112.91 44.56 112.91 44.12C112.923 43.68 112.937 43.1667 112.95 42.58C113.097 42.7133 113.27 42.8333 113.47 42.94C113.67 43.0333 113.863 43.1133 114.05 43.18C114.05 43.5133 114.043 43.8733 114.03 44.26C114.017 44.6333 113.997 44.98 113.97 45.3C113.957 45.6067 113.93 45.8333 113.89 45.98C113.85 46.2333 113.783 46.44 113.69 46.6C113.61 46.76 113.503 46.8933 113.37 47C113.25 47.0933 113.103 47.16 112.93 47.2C112.77 47.24 112.59 47.26 112.39 47.26C112.27 47.26 112.117 47.26 111.93 47.26C111.757 47.26 111.617 47.26 111.51 47.26C111.323 47.26 111.13 47.2267 110.93 47.16C110.743 47.1067 110.577 47.0133 110.43 46.88C110.337 46.7867 110.257 46.66 110.19 46.5C110.137 46.3533 110.097 46.1267 110.07 45.82C110.043 45.5133 110.03 45.08 110.03 44.52V30.24ZM136.81 30.16H145.47V31.1H136.81V30.16ZM147.41 29.54H151.25V30.56H147.41V29.54ZM146.17 33.22H152.17V34.22H146.17V33.22ZM137.35 32.04H144.93V32.98H137.35V32.04ZM140.53 29.2H141.89V32.56H140.53V29.2ZM140.69 34.16H141.75V36.36H140.69V34.16ZM138.05 33.84H145.05V37H138.05V36.1H143.79V34.74H138.05V33.84ZM137.63 33.84H138.89V35.24C138.89 35.6667 138.843 36.1267 138.75 36.62C138.657 37.1 138.483 37.58 138.23 38.06C137.977 38.5267 137.617 38.9533 137.15 39.34C137.083 39.26 136.983 39.1733 136.85 39.08C136.73 38.9733 136.603 38.8733 136.47 38.78C136.337 38.6867 136.217 38.6133 136.11 38.56C136.763 38.0533 137.177 37.5 137.35 36.9C137.537 36.2867 137.63 35.7267 137.63 35.22V33.84ZM146.89 29.54H148.09V30.38C148.09 30.8733 147.957 31.3933 147.69 31.94C147.423 32.4733 146.91 32.9467 146.15 33.36C146.083 33.28 145.99 33.1867 145.87 33.08C145.75 32.9733 145.623 32.8733 145.49 32.78C145.37 32.6867 145.257 32.62 145.15 32.58C145.87 32.2333 146.337 31.8667 146.55 31.48C146.777 31.08 146.89 30.7 146.89 30.34V29.54ZM150.35 29.54H151.59V31.46C151.59 31.62 151.61 31.7267 151.65 31.78C151.703 31.8333 151.803 31.86 151.95 31.86C151.99 31.86 152.07 31.86 152.19 31.86C152.31 31.86 152.437 31.86 152.57 31.86C152.703 31.86 152.79 31.86 152.83 31.86C152.937 31.86 153.017 31.8333 153.07 31.78C153.137 31.7133 153.183 31.5867 153.21 31.4C153.237 31.2 153.25 30.9 153.25 30.5C153.383 30.5933 153.55 30.68 153.75 30.76C153.95 30.8267 154.137 30.88 154.31 30.92C154.257 31.68 154.137 32.1933 153.95 32.46C153.777 32.7267 153.47 32.86 153.03 32.86C152.95 32.86 152.823 32.86 152.65 32.86C152.477 32.86 152.303 32.86 152.13 32.86C151.957 32.86 151.837 32.86 151.77 32.86C151.223 32.86 150.85 32.7667 150.65 32.58C150.45 32.3933 150.35 32.02 150.35 31.46V29.54ZM151.97 33.22H152.23L152.47 33.18L153.25 33.48C152.863 34.28 152.303 34.9467 151.57 35.48C150.85 36.0133 150.023 36.44 149.09 36.76C148.17 37.08 147.21 37.3267 146.21 37.5C146.143 37.34 146.05 37.16 145.93 36.96C145.81 36.76 145.697 36.6 145.59 36.48C146.497 36.3733 147.377 36.1933 148.23 35.94C149.083 35.6867 149.843 35.3533 150.51 34.94C151.177 34.5133 151.663 34 151.97 33.4V33.22ZM147.95 34.06C148.35 34.5933 148.883 35.08 149.55 35.52C150.217 35.9467 150.977 36.3067 151.83 36.6C152.697 36.88 153.603 37.0933 154.55 37.24C154.417 37.3733 154.27 37.54 154.11 37.74C153.963 37.94 153.843 38.1267 153.75 38.3C152.79 38.1133 151.87 37.84 150.99 37.48C150.11 37.1067 149.323 36.6667 148.63 36.16C147.937 35.64 147.37 35.0533 146.93 34.4L147.95 34.06ZM150.05 37.5L151.17 38.4C150.397 38.5333 149.53 38.6533 148.57 38.76C147.61 38.8533 146.603 38.9333 145.55 39C144.51 39.0667 143.457 39.12 142.39 39.16C141.323 39.2 140.29 39.2267 139.29 39.24C139.263 39.0933 139.217 38.9267 139.15 38.74C139.097 38.54 139.037 38.38 138.97 38.26C139.957 38.2333 140.963 38.2067 141.99 38.18C143.03 38.14 144.043 38.0867 145.03 38.02C146.03 37.9533 146.957 37.88 147.81 37.8C148.677 37.7067 149.423 37.6067 150.05 37.5ZM137.07 40.06H153.95V41.14H137.07V40.06ZM144.75 38.54H146.17V42.56H144.75V38.54ZM143.77 40.36L144.83 40.86C144.403 41.26 143.89 41.6467 143.29 42.02C142.69 42.38 142.05 42.72 141.37 43.04C140.69 43.36 139.997 43.6467 139.29 43.9C138.583 44.1533 137.91 44.3667 137.27 44.54C137.177 44.38 137.05 44.2 136.89 44C136.73 43.8 136.577 43.64 136.43 43.52C137.07 43.3733 137.73 43.1933 138.41 42.98C139.103 42.7533 139.783 42.5067 140.45 42.24C141.117 41.96 141.737 41.66 142.31 41.34C142.883 41.02 143.37 40.6933 143.77 40.36ZM147.11 40.36C147.63 40.8267 148.303 41.26 149.13 41.66C149.97 42.06 150.883 42.4133 151.87 42.72C152.857 43.0133 153.817 43.24 154.75 43.4C154.603 43.52 154.45 43.6867 154.29 43.9C154.13 44.1133 154.003 44.3067 153.91 44.48C152.95 44.2667 151.977 43.98 150.99 43.62C150.017 43.26 149.097 42.8467 148.23 42.38C147.363 41.9 146.637 41.38 146.05 40.82L147.11 40.36ZM139.85 42.8H151.41V47.54H149.93V43.7H141.27V47.62H139.85V42.8ZM140.75 44.52H150.55V45.32H140.75V44.52ZM140.79 46.18H150.53V47.06H140.79V46.18Z" fill="#E98F00"/>
<path d="M189.93 30.66C189.583 31.3 189.137 31.9667 188.59 32.66C188.057 33.34 187.457 33.9933 186.79 34.62C186.137 35.2333 185.443 35.7733 184.71 36.24C184.63 36.0533 184.51 35.8467 184.35 35.62C184.203 35.38 184.063 35.18 183.93 35.02C184.65 34.58 185.35 34.0467 186.03 33.42C186.71 32.78 187.317 32.0933 187.85 31.36C188.397 30.6267 188.83 29.9133 189.15 29.22H190.57C191.023 29.9667 191.543 30.7 192.13 31.42C192.73 32.1267 193.363 32.7667 194.03 33.34C194.71 33.9133 195.383 34.3933 196.05 34.78C195.917 34.9533 195.77 35.1667 195.61 35.42C195.463 35.6733 195.33 35.9 195.21 36.1C194.557 35.6733 193.897 35.1667 193.23 34.58C192.563 33.98 191.943 33.34 191.37 32.66C190.81 31.98 190.33 31.3133 189.93 30.66ZM190.35 34.36L191.65 34.88C191.237 35.4267 190.75 35.9533 190.19 36.46C189.63 36.9533 189.037 37.42 188.41 37.86C187.797 38.2867 187.183 38.66 186.57 38.98C186.45 38.8333 186.297 38.6733 186.11 38.5C185.923 38.3267 185.743 38.18 185.57 38.06C186.157 37.78 186.743 37.44 187.33 37.04C187.93 36.64 188.49 36.2133 189.01 35.76C189.543 35.2933 189.99 34.8267 190.35 34.36ZM192.03 37.3L193.35 37.86C192.83 38.5533 192.21 39.2133 191.49 39.84C190.783 40.4533 190.017 41.02 189.19 41.54C188.363 42.06 187.523 42.5 186.67 42.86C186.563 42.7 186.417 42.52 186.23 42.32C186.057 42.12 185.877 41.9533 185.69 41.82C186.503 41.5 187.31 41.1067 188.11 40.64C188.91 40.1733 189.65 39.6533 190.33 39.08C191.01 38.5067 191.577 37.9133 192.03 37.3ZM193.85 40.3L195.19 40.9C194.257 42.4867 192.963 43.8533 191.31 45C189.67 46.1333 187.803 47.0133 185.71 47.64C185.603 47.44 185.463 47.22 185.29 46.98C185.117 46.7533 184.943 46.5533 184.77 46.38C186.117 46.02 187.37 45.5467 188.53 44.96C189.703 44.3733 190.743 43.6933 191.65 42.92C192.557 42.1333 193.29 41.26 193.85 40.3ZM178.21 35.26H184.07V36.44H178.21V35.26ZM178.29 29.9H183.99V31.1H178.29V29.9ZM178.21 37.92H184.07V39.12H178.21V37.92ZM177.27 32.52H184.69V33.78H177.27V32.52ZM178.89 40.62H184.09V46.46H178.89V45.22H182.77V41.88H178.89V40.62ZM178.19 40.62H179.51V47.38H178.19V40.62ZM218.73 30.3H227.37V31.68H218.73V30.3ZM228.79 36.02H236.83V37.46H228.79V36.02ZM233.13 36.94H234.61V47.6H233.13V36.94ZM228.21 31.18L230.09 31.66C230.063 31.8067 229.93 31.9 229.69 31.94V36.52C229.69 37.3333 229.65 38.2133 229.57 39.16C229.49 40.0933 229.33 41.0533 229.09 42.04C228.863 43.0267 228.523 43.9933 228.07 44.94C227.617 45.8867 227.01 46.76 226.25 47.56C226.183 47.44 226.083 47.3133 225.95 47.18C225.83 47.0467 225.69 46.92 225.53 46.8C225.383 46.68 225.25 46.5933 225.13 46.54C225.837 45.7933 226.39 45 226.79 44.16C227.203 43.32 227.51 42.46 227.71 41.58C227.91 40.6867 228.043 39.8133 228.11 38.96C228.177 38.0933 228.21 37.2733 228.21 36.5V31.18ZM219.47 33.78H220.91V39.18C220.91 39.82 220.883 40.5067 220.83 41.24C220.79 41.9733 220.703 42.72 220.57 43.48C220.45 44.2267 220.277 44.96 220.05 45.68C219.823 46.3867 219.51 47.0333 219.11 47.62C219.043 47.5267 218.937 47.42 218.79 47.3C218.643 47.1933 218.49 47.08 218.33 46.96C218.183 46.8533 218.057 46.7733 217.95 46.72C218.417 45.9867 218.757 45.18 218.97 44.3C219.183 43.42 219.317 42.54 219.37 41.66C219.437 40.7667 219.47 39.9333 219.47 39.16V33.78ZM235.09 29.44L236.41 30.56C235.757 30.88 235.017 31.1867 234.19 31.48C233.363 31.76 232.51 32.0267 231.63 32.28C230.75 32.52 229.89 32.7333 229.05 32.92C229.01 32.76 228.937 32.56 228.83 32.32C228.723 32.08 228.617 31.88 228.51 31.72C229.31 31.52 230.117 31.3 230.93 31.06C231.757 30.82 232.53 30.56 233.25 30.28C233.983 30 234.597 29.72 235.09 29.44ZM220.31 33.78H226.85V40.02H220.31V38.66H225.39V35.16H220.31V33.78Z" fill="black"/>
<path d="M95.3028 65V58.4545H96.0954V61.7017H96.1721L99.1124 58.4545H100.148L97.3994 61.4077L100.148 65H99.1891L96.9136 61.9574L96.0954 62.8778V65H95.3028ZM102.516 65.1151C102.205 65.1151 101.923 65.0565 101.669 64.9393C101.416 64.82 101.214 64.6484 101.065 64.4247C100.916 64.1989 100.841 63.9261 100.841 63.6065C100.841 63.3253 100.897 63.0973 101.008 62.9226C101.118 62.7457 101.267 62.6072 101.452 62.5071C101.637 62.407 101.842 62.3324 102.066 62.2834C102.291 62.2322 102.518 62.1918 102.746 62.1619C103.045 62.1236 103.286 62.0948 103.472 62.0756C103.659 62.0543 103.796 62.0192 103.881 61.9702C103.968 61.9212 104.012 61.8359 104.012 61.7145V61.6889C104.012 61.3736 103.926 61.1286 103.753 60.9538C103.583 60.7791 103.324 60.6918 102.976 60.6918C102.616 60.6918 102.334 60.7706 102.129 60.9283C101.925 61.0859 101.781 61.2543 101.698 61.4332L100.982 61.1776C101.11 60.8793 101.28 60.647 101.493 60.4808C101.709 60.3125 101.943 60.1953 102.197 60.1293C102.452 60.0611 102.704 60.027 102.951 60.027C103.109 60.027 103.29 60.0462 103.494 60.0845C103.701 60.1207 103.9 60.1964 104.092 60.3114C104.286 60.4265 104.447 60.6001 104.574 60.8324C104.702 61.0646 104.766 61.3757 104.766 61.7656V65H104.012V64.3352H103.974C103.922 64.4418 103.837 64.5558 103.718 64.6772C103.599 64.7987 103.44 64.902 103.242 64.9872C103.044 65.0724 102.802 65.1151 102.516 65.1151ZM102.631 64.4375C102.93 64.4375 103.181 64.3789 103.386 64.2617C103.592 64.1445 103.748 63.9933 103.852 63.8079C103.959 63.6225 104.012 63.4276 104.012 63.223V62.5327C103.98 62.571 103.91 62.6062 103.801 62.6381C103.694 62.668 103.571 62.6946 103.43 62.718C103.292 62.7393 103.156 62.7585 103.024 62.7756C102.894 62.7905 102.789 62.8033 102.708 62.8139C102.512 62.8395 102.329 62.881 102.158 62.9386C101.99 62.994 101.854 63.0781 101.749 63.1911C101.647 63.3018 101.596 63.4531 101.596 63.6449C101.596 63.907 101.693 64.1051 101.887 64.2393C102.083 64.3714 102.331 64.4375 102.631 64.4375ZM106.143 65V60.0909H106.897V65H106.143ZM106.526 59.2727C106.379 59.2727 106.253 59.2227 106.146 59.1225C106.042 59.0224 105.989 58.902 105.989 58.7614C105.989 58.6207 106.042 58.5004 106.146 58.4002C106.253 58.3001 106.379 58.25 106.526 58.25C106.673 58.25 106.799 58.3001 106.904 58.4002C107.01 58.5004 107.063 58.6207 107.063 58.7614C107.063 58.902 107.01 59.0224 106.904 59.1225C106.799 59.2227 106.673 59.2727 106.526 59.2727ZM111.296 58.4545L112.983 61.1776H113.034L114.722 58.4545H115.655L113.597 61.7273L115.655 65H114.722L113.034 62.3281H112.983L111.296 65H110.362L112.472 61.7273L110.362 58.4545H111.296ZM116.584 65V60.0909H117.339V65H116.584ZM116.968 59.2727C116.821 59.2727 116.694 59.2227 116.587 59.1225C116.483 59.0224 116.431 58.902 116.431 58.7614C116.431 58.6207 116.483 58.5004 116.587 58.4002C116.694 58.3001 116.821 58.25 116.968 58.25C117.115 58.25 117.241 58.3001 117.345 58.4002C117.451 58.5004 117.505 58.6207 117.505 58.7614C117.505 58.902 117.451 59.0224 117.345 59.1225C117.241 59.2227 117.115 59.2727 116.968 59.2727ZM119.474 62.0469V65H118.72V60.0909H119.449V60.858H119.513C119.628 60.6087 119.802 60.4084 120.037 60.2571C120.271 60.1037 120.574 60.027 120.944 60.027C121.277 60.027 121.568 60.0952 121.817 60.2315C122.066 60.3658 122.26 60.5703 122.399 60.8452C122.537 61.1179 122.606 61.4631 122.606 61.8807V65H121.852V61.9318C121.852 61.5462 121.752 61.2457 121.552 61.0305C121.351 60.8132 121.077 60.7045 120.727 60.7045C120.486 60.7045 120.271 60.7567 120.082 60.8612C119.894 60.9656 119.746 61.1179 119.637 61.3182C119.529 61.5185 119.474 61.7614 119.474 62.0469ZM126.618 65V58.4545H128.83C129.343 58.4545 129.763 58.5472 130.089 58.7326C130.417 58.9158 130.66 59.1641 130.818 59.4773C130.975 59.7905 131.054 60.1399 131.054 60.5256C131.054 60.9112 130.975 61.2617 130.818 61.5771C130.662 61.8924 130.421 62.1438 130.095 62.3313C129.769 62.5167 129.352 62.6094 128.843 62.6094H127.257V61.9062H128.817C129.169 61.9062 129.451 61.8455 129.664 61.7241C129.877 61.6026 130.032 61.4386 130.127 61.2319C130.225 61.0231 130.274 60.7876 130.274 60.5256C130.274 60.2635 130.225 60.0291 130.127 59.8224C130.032 59.6158 129.876 59.4538 129.661 59.3366C129.446 59.2173 129.16 59.1577 128.804 59.1577H127.411V65H126.618ZM132.229 65V60.0909H132.958V60.8324H133.009C133.098 60.5895 133.26 60.3924 133.494 60.2411C133.729 60.0898 133.993 60.0142 134.287 60.0142C134.342 60.0142 134.412 60.0153 134.495 60.0174C134.578 60.0195 134.641 60.0227 134.683 60.027V60.794C134.658 60.7876 134.599 60.7781 134.508 60.7653C134.418 60.7504 134.323 60.7429 134.223 60.7429C133.985 60.7429 133.771 60.793 133.584 60.8931C133.399 60.9911 133.252 61.1275 133.143 61.3022C133.036 61.4748 132.983 61.6719 132.983 61.8935V65H132.229ZM137.486 65.1023C137.013 65.1023 136.605 64.9979 136.262 64.7891C135.921 64.5781 135.658 64.2841 135.473 63.907C135.29 63.5277 135.198 63.0866 135.198 62.5838C135.198 62.081 135.29 61.6378 135.473 61.2543C135.658 60.8686 135.916 60.5682 136.246 60.353C136.579 60.1357 136.966 60.027 137.41 60.027C137.665 60.027 137.918 60.0696 138.167 60.1548C138.416 60.2401 138.643 60.3786 138.848 60.5703C139.052 60.7599 139.215 61.0114 139.337 61.3246C139.458 61.6378 139.519 62.0234 139.519 62.4815V62.8011H135.735V62.1491H138.752C138.752 61.8722 138.697 61.625 138.586 61.4077C138.477 61.1903 138.322 61.0188 138.119 60.8931C137.919 60.7674 137.682 60.7045 137.41 60.7045C137.109 60.7045 136.849 60.7791 136.63 60.9283C136.412 61.0753 136.245 61.267 136.128 61.5036C136.011 61.7401 135.952 61.9936 135.952 62.2642V62.6989C135.952 63.0696 136.016 63.3839 136.144 63.6417C136.274 63.8974 136.454 64.0923 136.684 64.2266C136.914 64.3587 137.182 64.4247 137.486 64.4247C137.684 64.4247 137.863 64.397 138.023 64.3416C138.185 64.2841 138.325 64.1989 138.442 64.0859C138.559 63.9709 138.65 63.8281 138.714 63.6577L139.442 63.8622C139.366 64.1094 139.237 64.3267 139.056 64.5142C138.874 64.6996 138.651 64.8445 138.384 64.9489C138.118 65.0511 137.819 65.1023 137.486 65.1023ZM144.531 60.0909L142.716 65H141.949L140.133 60.0909H140.952L142.307 64.0028H142.358L143.713 60.0909H144.531ZM147.409 65.1023C146.936 65.1023 146.528 64.9979 146.185 64.7891C145.844 64.5781 145.581 64.2841 145.396 63.907C145.212 63.5277 145.121 63.0866 145.121 62.5838C145.121 62.081 145.212 61.6378 145.396 61.2543C145.581 60.8686 145.839 60.5682 146.169 60.353C146.501 60.1357 146.889 60.027 147.332 60.027C147.588 60.027 147.841 60.0696 148.09 60.1548C148.339 60.2401 148.566 60.3786 148.771 60.5703C148.975 60.7599 149.138 61.0114 149.26 61.3246C149.381 61.6378 149.442 62.0234 149.442 62.4815V62.8011H145.658V62.1491H148.675C148.675 61.8722 148.619 61.625 148.509 61.4077C148.4 61.1903 148.244 61.0188 148.042 60.8931C147.842 60.7674 147.605 60.7045 147.332 60.7045C147.032 60.7045 146.772 60.7791 146.553 60.9283C146.335 61.0753 146.168 61.267 146.051 61.5036C145.934 61.7401 145.875 61.9936 145.875 62.2642V62.6989C145.875 63.0696 145.939 63.3839 146.067 63.6417C146.197 63.8974 146.377 64.0923 146.607 64.2266C146.837 64.3587 147.104 64.4247 147.409 64.4247C147.607 64.4247 147.786 64.397 147.946 64.3416C148.108 64.2841 148.248 64.1989 148.365 64.0859C148.482 63.9709 148.572 63.8281 148.636 63.6577L149.365 63.8622C149.288 64.1094 149.159 64.3267 148.978 64.5142C148.797 64.6996 148.574 64.8445 148.307 64.9489C148.041 65.0511 147.742 65.1023 147.409 65.1023ZM151.343 62.0469V65H150.589V60.0909H151.318V60.858H151.382C151.497 60.6087 151.672 60.4084 151.906 60.2571C152.14 60.1037 152.443 60.027 152.814 60.027C153.146 60.027 153.437 60.0952 153.686 60.2315C153.935 60.3658 154.129 60.5703 154.268 60.8452C154.406 61.1179 154.476 61.4631 154.476 61.8807V65H153.721V61.9318C153.721 61.5462 153.621 61.2457 153.421 61.0305C153.221 60.8132 152.946 60.7045 152.596 60.7045C152.356 60.7045 152.14 60.7567 151.951 60.8612C151.763 60.9656 151.615 61.1179 151.506 61.3182C151.398 61.5185 151.343 61.7614 151.343 62.0469ZM157.989 60.0909V60.7301H155.445V60.0909H157.989ZM156.186 58.9148H156.94V63.5938C156.94 63.8068 156.971 63.9666 157.033 64.0732C157.097 64.1776 157.178 64.2479 157.276 64.2841C157.376 64.3182 157.482 64.3352 157.592 64.3352C157.676 64.3352 157.744 64.331 157.797 64.3224C157.85 64.3118 157.893 64.3033 157.925 64.2969L158.078 64.9744C158.027 64.9936 157.956 65.0128 157.864 65.032C157.773 65.0533 157.656 65.0639 157.516 65.0639C157.303 65.0639 157.094 65.0181 156.889 64.9265C156.687 64.8349 156.519 64.6953 156.384 64.5078C156.252 64.3203 156.186 64.0838 156.186 63.7983V58.9148ZM159.123 65V60.0909H159.878V65H159.123ZM159.507 59.2727C159.36 59.2727 159.233 59.2227 159.127 59.1225C159.022 59.0224 158.97 58.902 158.97 58.7614C158.97 58.6207 159.022 58.5004 159.127 58.4002C159.233 58.3001 159.36 58.25 159.507 58.25C159.654 58.25 159.78 58.3001 159.884 58.4002C159.991 58.5004 160.044 58.6207 160.044 58.7614C160.044 58.902 159.991 59.0224 159.884 59.1225C159.78 59.2227 159.654 59.2727 159.507 59.2727ZM165.273 60.0909L163.458 65H162.691L160.876 60.0909H161.694L163.049 64.0028H163.1L164.455 60.0909H165.273ZM168.151 65.1023C167.678 65.1023 167.27 64.9979 166.927 64.7891C166.586 64.5781 166.323 64.2841 166.138 63.907C165.955 63.5277 165.863 63.0866 165.863 62.5838C165.863 62.081 165.955 61.6378 166.138 61.2543C166.323 60.8686 166.581 60.5682 166.911 60.353C167.244 60.1357 167.631 60.027 168.075 60.027C168.33 60.027 168.583 60.0696 168.832 60.1548C169.081 60.2401 169.308 60.3786 169.513 60.5703C169.717 60.7599 169.88 61.0114 170.002 61.3246C170.123 61.6378 170.184 62.0234 170.184 62.4815V62.8011H166.4V62.1491H169.417C169.417 61.8722 169.362 61.625 169.251 61.4077C169.142 61.1903 168.987 61.0188 168.784 60.8931C168.584 60.7674 168.347 60.7045 168.075 60.7045C167.774 60.7045 167.514 60.7791 167.295 60.9283C167.077 61.0753 166.91 61.267 166.793 61.5036C166.676 61.7401 166.617 61.9936 166.617 62.2642V62.6989C166.617 63.0696 166.681 63.3839 166.809 63.6417C166.939 63.8974 167.119 64.0923 167.349 64.2266C167.579 64.3587 167.847 64.4247 168.151 64.4247C168.349 64.4247 168.528 64.397 168.688 64.3416C168.85 64.2841 168.99 64.1989 169.107 64.0859C169.224 63.9709 169.315 63.8281 169.379 63.6577L170.107 63.8622C170.031 64.1094 169.902 64.3267 169.721 64.5142C169.539 64.6996 169.316 64.8445 169.049 64.9489C168.783 65.0511 168.484 65.1023 168.151 65.1023ZM173.965 58.4545H174.911L177.135 63.8878H177.212L179.436 58.4545H180.382V65H179.641V60.027H179.577L177.532 65H176.816L174.77 60.027H174.706V65H173.965V58.4545ZM183.928 65.1023C183.455 65.1023 183.047 64.9979 182.704 64.7891C182.363 64.5781 182.1 64.2841 181.914 63.907C181.731 63.5277 181.639 63.0866 181.639 62.5838C181.639 62.081 181.731 61.6378 181.914 61.2543C182.1 60.8686 182.357 60.5682 182.688 60.353C183.02 60.1357 183.408 60.027 183.851 60.027C184.107 60.027 184.359 60.0696 184.608 60.1548C184.858 60.2401 185.085 60.3786 185.289 60.5703C185.494 60.7599 185.657 61.0114 185.778 61.3246C185.9 61.6378 185.96 62.0234 185.96 62.4815V62.8011H182.176V62.1491H185.193C185.193 61.8722 185.138 61.625 185.027 61.4077C184.918 61.1903 184.763 61.0188 184.56 60.8931C184.36 60.7674 184.124 60.7045 183.851 60.7045C183.551 60.7045 183.291 60.7791 183.071 60.9283C182.854 61.0753 182.687 61.267 182.569 61.5036C182.452 61.7401 182.394 61.9936 182.394 62.2642V62.6989C182.394 63.0696 182.458 63.3839 182.585 63.6417C182.715 63.8974 182.895 64.0923 183.125 64.2266C183.356 64.3587 183.623 64.4247 183.928 64.4247C184.126 64.4247 184.305 64.397 184.465 64.3416C184.627 64.2841 184.766 64.1989 184.883 64.0859C185 63.9709 185.091 63.8281 185.155 63.6577L185.884 63.8622C185.807 64.1094 185.678 64.3267 185.497 64.5142C185.316 64.6996 185.092 64.8445 184.826 64.9489C184.559 65.0511 184.26 65.1023 183.928 65.1023ZM188.961 65.1023C188.552 65.1023 188.191 64.9989 187.878 64.7923C187.565 64.5835 187.32 64.2894 187.143 63.9102C186.966 63.5288 186.878 63.0781 186.878 62.5582C186.878 62.0426 186.966 61.5952 187.143 61.2159C187.32 60.8366 187.566 60.5437 187.881 60.337C188.197 60.1303 188.561 60.027 188.974 60.027C189.294 60.027 189.546 60.0803 189.732 60.1868C189.919 60.2912 190.062 60.4105 190.16 60.5447C190.26 60.6768 190.338 60.7855 190.393 60.8707H190.457V58.4545H191.211V65H190.483V64.2457H190.393C190.338 64.3352 190.259 64.4482 190.157 64.5845C190.054 64.7187 189.909 64.8391 189.719 64.9457C189.529 65.0501 189.277 65.1023 188.961 65.1023ZM189.064 64.4247C189.366 64.4247 189.622 64.3459 189.831 64.1882C190.04 64.0284 190.198 63.8079 190.307 63.5266C190.416 63.2433 190.47 62.9162 190.47 62.5455C190.47 62.179 190.417 61.8583 190.31 61.5835C190.204 61.3065 190.046 61.0913 189.837 60.9379C189.628 60.7823 189.371 60.7045 189.064 60.7045C188.744 60.7045 188.478 60.7866 188.265 60.9506C188.054 61.1126 187.895 61.3331 187.788 61.6122C187.684 61.8892 187.632 62.2003 187.632 62.5455C187.632 62.8949 187.685 63.2124 187.792 63.4979C187.9 63.7812 188.06 64.0071 188.271 64.1754C188.484 64.3416 188.748 64.4247 189.064 64.4247ZM192.698 65V60.0909H193.452V65H192.698ZM193.081 59.2727C192.934 59.2727 192.807 59.2227 192.701 59.1225C192.596 59.0224 192.544 58.902 192.544 58.7614C192.544 58.6207 192.596 58.5004 192.701 58.4002C192.807 58.3001 192.934 58.25 193.081 58.25C193.228 58.25 193.354 58.3001 193.458 58.4002C193.565 58.5004 193.618 58.6207 193.618 58.7614C193.618 58.902 193.565 59.0224 193.458 59.1225C193.354 59.2227 193.228 59.2727 193.081 59.2727ZM196.828 65.1023C196.367 65.1023 195.971 64.9936 195.639 64.7763C195.306 64.5589 195.051 64.2596 194.872 63.8782C194.693 63.4968 194.603 63.0611 194.603 62.571C194.603 62.0724 194.695 61.6325 194.878 61.2511C195.063 60.8675 195.321 60.5682 195.651 60.353C195.984 60.1357 196.372 60.027 196.815 60.027C197.16 60.027 197.471 60.0909 197.748 60.2188C198.025 60.3466 198.252 60.5256 198.429 60.7557C198.606 60.9858 198.715 61.2543 198.758 61.5611H198.004C197.946 61.3374 197.818 61.1392 197.62 60.9666C197.424 60.7919 197.16 60.7045 196.828 60.7045C196.534 60.7045 196.276 60.7812 196.054 60.9347C195.835 61.0859 195.663 61.3001 195.54 61.5771C195.418 61.8519 195.357 62.1747 195.357 62.5455C195.357 62.9247 195.417 63.255 195.536 63.5362C195.658 63.8175 195.828 64.0359 196.048 64.1914C196.269 64.3469 196.529 64.4247 196.828 64.4247C197.024 64.4247 197.202 64.3906 197.361 64.3224C197.521 64.2543 197.656 64.1562 197.767 64.0284C197.878 63.9006 197.957 63.7472 198.004 63.5682H198.758C198.715 63.858 198.61 64.119 198.442 64.3512C198.275 64.5813 198.055 64.7646 197.78 64.9009C197.507 65.0352 197.19 65.1023 196.828 65.1023ZM201.305 65.1151C200.994 65.1151 200.712 65.0565 200.458 64.9393C200.205 64.82 200.003 64.6484 199.854 64.4247C199.705 64.1989 199.631 63.9261 199.631 63.6065C199.631 63.3253 199.686 63.0973 199.797 62.9226C199.908 62.7457 200.056 62.6072 200.241 62.5071C200.426 62.407 200.631 62.3324 200.855 62.2834C201.08 62.2322 201.307 62.1918 201.535 62.1619C201.834 62.1236 202.076 62.0948 202.261 62.0756C202.448 62.0543 202.585 62.0192 202.67 61.9702C202.757 61.9212 202.801 61.8359 202.801 61.7145V61.6889C202.801 61.3736 202.715 61.1286 202.542 60.9538C202.372 60.7791 202.113 60.6918 201.765 60.6918C201.405 60.6918 201.123 60.7706 200.919 60.9283C200.714 61.0859 200.57 61.2543 200.487 61.4332L199.771 61.1776C199.899 60.8793 200.069 60.647 200.283 60.4808C200.498 60.3125 200.732 60.1953 200.986 60.1293C201.241 60.0611 201.493 60.027 201.74 60.027C201.898 60.027 202.079 60.0462 202.283 60.0845C202.49 60.1207 202.689 60.1964 202.881 60.3114C203.075 60.4265 203.236 60.6001 203.364 60.8324C203.491 61.0646 203.555 61.3757 203.555 61.7656V65H202.801V64.3352H202.763C202.712 64.4418 202.626 64.5558 202.507 64.6772C202.388 64.7987 202.229 64.902 202.031 64.9872C201.833 65.0724 201.591 65.1151 201.305 65.1151ZM201.42 64.4375C201.719 64.4375 201.97 64.3789 202.175 64.2617C202.381 64.1445 202.537 63.9933 202.641 63.8079C202.748 63.6225 202.801 63.4276 202.801 63.223V62.5327C202.769 62.571 202.699 62.6062 202.59 62.6381C202.484 62.668 202.36 62.6946 202.219 62.718C202.081 62.7393 201.946 62.7585 201.813 62.7756C201.683 62.7905 201.578 62.8033 201.497 62.8139C201.301 62.8395 201.118 62.881 200.947 62.9386C200.779 62.994 200.643 63.0781 200.538 63.1911C200.436 63.3018 200.385 63.4531 200.385 63.6449C200.385 63.907 200.482 64.1051 200.676 64.2393C200.872 64.3714 201.12 64.4375 201.42 64.4375ZM205.686 58.4545V65H204.932V58.4545H205.686ZM214.968 60.5H214.176C214.129 60.272 214.047 60.0717 213.93 59.8991C213.814 59.7266 213.674 59.5817 213.508 59.4645C213.344 59.3452 213.161 59.2557 212.961 59.196C212.761 59.1364 212.552 59.1065 212.335 59.1065C211.938 59.1065 211.579 59.2067 211.258 59.407C210.938 59.6072 210.683 59.9023 210.494 60.2923C210.306 60.6822 210.213 61.1605 210.213 61.7273C210.213 62.294 210.306 62.7724 210.494 63.1623C210.683 63.5522 210.938 63.8473 211.258 64.0476C211.579 64.2479 211.938 64.348 212.335 64.348C212.552 64.348 212.761 64.3182 212.961 64.2585C213.161 64.1989 213.344 64.1104 213.508 63.9933C213.674 63.8739 213.814 63.728 213.93 63.5554C214.047 63.3807 214.129 63.1804 214.176 62.9545H214.968C214.909 63.2891 214.8 63.5884 214.642 63.8526C214.485 64.1168 214.289 64.3416 214.054 64.527C213.82 64.7102 213.557 64.8498 213.265 64.9457C212.975 65.0415 212.665 65.0895 212.335 65.0895C211.776 65.0895 211.28 64.9531 210.845 64.6804C210.411 64.4077 210.069 64.0199 209.819 63.517C209.57 63.0142 209.446 62.4176 209.446 61.7273C209.446 61.0369 209.57 60.4403 209.819 59.9375C210.069 59.4347 210.411 59.0469 210.845 58.7741C211.28 58.5014 211.776 58.3651 212.335 58.3651C212.665 58.3651 212.975 58.413 213.265 58.5089C213.557 58.6048 213.82 58.7454 214.054 58.9308C214.289 59.114 214.485 59.3377 214.642 59.6019C214.8 59.864 214.909 60.1634 214.968 60.5ZM218.205 65.1023C217.732 65.1023 217.324 64.9979 216.981 64.7891C216.64 64.5781 216.377 64.2841 216.192 63.907C216.008 63.5277 215.917 63.0866 215.917 62.5838C215.917 62.081 216.008 61.6378 216.192 61.2543C216.377 60.8686 216.635 60.5682 216.965 60.353C217.297 60.1357 217.685 60.027 218.128 60.027C218.384 60.027 218.636 60.0696 218.886 60.1548C219.135 60.2401 219.362 60.3786 219.567 60.5703C219.771 60.7599 219.934 61.0114 220.056 61.3246C220.177 61.6378 220.238 62.0234 220.238 62.4815V62.8011H216.454V62.1491H219.471C219.471 61.8722 219.415 61.625 219.304 61.4077C219.196 61.1903 219.04 61.0188 218.838 60.8931C218.638 60.7674 218.401 60.7045 218.128 60.7045C217.828 60.7045 217.568 60.7791 217.348 60.9283C217.131 61.0753 216.964 61.267 216.847 61.5036C216.73 61.7401 216.671 61.9936 216.671 62.2642V62.6989C216.671 63.0696 216.735 63.3839 216.863 63.6417C216.993 63.8974 217.173 64.0923 217.403 64.2266C217.633 64.3587 217.9 64.4247 218.205 64.4247C218.403 64.4247 218.582 64.397 218.742 64.3416C218.904 64.2841 219.043 64.1989 219.161 64.0859C219.278 63.9709 219.368 63.8281 219.432 63.6577L220.161 63.8622C220.084 64.1094 219.955 64.3267 219.774 64.5142C219.593 64.6996 219.369 64.8445 219.103 64.9489C218.837 65.0511 218.537 65.1023 218.205 65.1023ZM222.139 62.0469V65H221.385V60.0909H222.114V60.858H222.178C222.293 60.6087 222.467 60.4084 222.702 60.2571C222.936 60.1037 223.239 60.027 223.61 60.027C223.942 60.027 224.233 60.0952 224.482 60.2315C224.731 60.3658 224.925 60.5703 225.064 60.8452C225.202 61.1179 225.271 61.4631 225.271 61.8807V65H224.517V61.9318C224.517 61.5462 224.417 61.2457 224.217 61.0305C224.016 60.8132 223.742 60.7045 223.392 60.7045C223.151 60.7045 222.936 60.7567 222.747 60.8612C222.559 60.9656 222.411 61.1179 222.302 61.3182C222.194 61.5185 222.139 61.7614 222.139 62.0469ZM228.785 60.0909V60.7301H226.241V60.0909H228.785ZM226.982 58.9148H227.736V63.5938C227.736 63.8068 227.767 63.9666 227.829 64.0732C227.893 64.1776 227.974 64.2479 228.072 64.2841C228.172 64.3182 228.278 64.3352 228.388 64.3352C228.471 64.3352 228.54 64.331 228.593 64.3224C228.646 64.3118 228.689 64.3033 228.721 64.2969L228.874 64.9744C228.823 64.9936 228.752 65.0128 228.66 65.032C228.568 65.0533 228.452 65.0639 228.312 65.0639C228.099 65.0639 227.89 65.0181 227.685 64.9265C227.483 64.8349 227.314 64.6953 227.18 64.5078C227.048 64.3203 226.982 64.0838 226.982 63.7983V58.9148ZM231.925 65.1023C231.452 65.1023 231.044 64.9979 230.701 64.7891C230.36 64.5781 230.097 64.2841 229.911 63.907C229.728 63.5277 229.636 63.0866 229.636 62.5838C229.636 62.081 229.728 61.6378 229.911 61.2543C230.097 60.8686 230.354 60.5682 230.685 60.353C231.017 60.1357 231.405 60.027 231.848 60.027C232.104 60.027 232.356 60.0696 232.606 60.1548C232.855 60.2401 233.082 60.3786 233.286 60.5703C233.491 60.7599 233.654 61.0114 233.775 61.3246C233.897 61.6378 233.957 62.0234 233.957 62.4815V62.8011H230.173V62.1491H233.19C233.19 61.8722 233.135 61.625 233.024 61.4077C232.916 61.1903 232.76 61.0188 232.558 60.8931C232.357 60.7674 232.121 60.7045 231.848 60.7045C231.548 60.7045 231.288 60.7791 231.068 60.9283C230.851 61.0753 230.684 61.267 230.566 61.5036C230.449 61.7401 230.391 61.9936 230.391 62.2642V62.6989C230.391 63.0696 230.455 63.3839 230.582 63.6417C230.712 63.8974 230.892 64.0923 231.123 64.2266C231.353 64.3587 231.62 64.4247 231.925 64.4247C232.123 64.4247 232.302 64.397 232.462 64.3416C232.624 64.2841 232.763 64.1989 232.88 64.0859C232.998 63.9709 233.088 63.8281 233.152 63.6577L233.881 63.8622C233.804 64.1094 233.675 64.3267 233.494 64.5142C233.313 64.6996 233.089 64.8445 232.823 64.9489C232.557 65.0511 232.257 65.1023 231.925 65.1023ZM235.105 65V60.0909H235.833V60.8324H235.885C235.974 60.5895 236.136 60.3924 236.37 60.2411C236.605 60.0898 236.869 60.0142 237.163 60.0142C237.218 60.0142 237.288 60.0153 237.371 60.0174C237.454 60.0195 237.517 60.0227 237.559 60.027V60.794C237.534 60.7876 237.475 60.7781 237.384 60.7653C237.294 60.7504 237.199 60.7429 237.099 60.7429C236.86 60.7429 236.647 60.793 236.46 60.8931C236.275 60.9911 236.128 61.1275 236.019 61.3022C235.912 61.4748 235.859 61.6719 235.859 61.8935V65H235.105Z" fill="#393939"/>
</svg>
