<svg id="ins"  viewBox="0 0 24 24" fill="none" xmlns="http://www.w3.org/2000/svg">
<path d="M14.4999 6.99991C15.1624 7.00189 15.7972 7.26594 16.2656 7.73438C16.7341 8.20283 16.9981 8.83761 17.0001 9.50009V14.4999C16.9981 15.1624 16.7341 15.7972 16.2656 16.2656C15.7972 16.7341 15.1624 16.9981 14.4999 17.0001H9.50009C8.83761 16.9981 8.20283 16.7341 7.73438 16.2656C7.26594 15.7972 7.00189 15.1624 6.99991 14.4999V9.50009C7.00189 8.83761 7.26594 8.20283 7.73438 7.73438C8.20283 7.26594 8.83761 7.00189 9.50009 6.99991H14.4999ZM14.4999 6H9.50009C7.575 6 6 7.575 6 9.50009V14.4999C6 16.425 7.575 18 9.50009 18H14.4999C16.425 18 18 16.425 18 14.4999V9.50009C18 7.575 16.425 6 14.4999 6Z" fill="white"/>
<path d="M15.2499 9.50009C15.1016 9.50009 14.9566 9.4561 14.8332 9.37369C14.7099 9.29128 14.6138 9.17415 14.557 9.0371C14.5002 8.90006 14.4854 8.74926 14.5143 8.60377C14.5433 8.45829 14.6147 8.32465 14.7196 8.21976C14.8245 8.11487 14.9581 8.04344 15.1036 8.0145C15.2491 7.98556 15.3999 8.00041 15.5369 8.05718C15.674 8.11395 15.7911 8.21007 15.8735 8.33341C15.9559 8.45675 15.9999 8.60175 15.9999 8.75009C16.0001 8.84864 15.9809 8.94626 15.9433 9.03735C15.9056 9.12844 15.8504 9.21121 15.7807 9.28089C15.711 9.35058 15.6283 9.40581 15.5372 9.44343C15.4461 9.48105 15.3485 9.5003 15.2499 9.50009ZM12 9.99991C12.3956 9.99991 12.7823 10.1172 13.1112 10.337C13.4401 10.5568 13.6965 10.8691 13.8478 11.2346C13.9992 11.6001 14.0388 12.0022 13.9617 12.3902C13.8845 12.7782 13.694 13.1346 13.4143 13.4143C13.1346 13.694 12.7782 13.8845 12.3902 13.9617C12.0022 14.0388 11.6001 13.9992 11.2346 13.8478C10.8691 13.6965 10.5568 13.4401 10.337 13.1112C10.1172 12.7823 9.99991 12.3956 9.99991 12C10.0005 11.4697 10.2114 10.9613 10.5864 10.5864C10.9613 10.2114 11.4697 10.0005 12 9.99991ZM12 9C11.4067 9 10.8266 9.17595 10.3333 9.50559C9.83994 9.83524 9.45542 10.3038 9.22836 10.8519C9.0013 11.4001 8.94189 12.0033 9.05764 12.5853C9.1734 13.1672 9.45912 13.7018 9.87868 14.1213C10.2982 14.5409 10.8328 14.8266 11.4147 14.9424C11.9967 15.0581 12.5999 14.9987 13.148 14.7716C13.6962 14.5446 14.1648 14.1601 14.4944 13.6667C14.8241 13.1734 15 12.5933 15 12C15 11.2044 14.6839 10.4413 14.1213 9.87868C13.5587 9.31607 12.7956 9 12 9Z" fill="white"/>
<path d="M23.8 12C23.8 18.517 18.517 23.8 12 23.8C5.48304 23.8 0.2 18.517 0.2 12C0.2 5.48304 5.48304 0.2 12 0.2C18.517 0.2 23.8 5.48304 23.8 12Z" stroke="white" stroke-width="0.4"/>
</svg>
