<svg id='facebook' viewBox="0 0 24 24" fill="none" xmlns="http://www.w3.org/2000/svg">
<path d="M15.3665 9.18182V11.2273H9.30682V9.18182H15.3665ZM10.6939 19V8.4723C10.6939 7.76065 10.8324 7.17045 11.1094 6.7017C11.3906 6.23295 11.7741 5.88139 12.2599 5.64702C12.7457 5.41264 13.2976 5.29545 13.9155 5.29545C14.3331 5.29545 14.7145 5.32741 15.0597 5.39134C15.4091 5.45526 15.669 5.51278 15.8395 5.56392L15.3537 7.60938C15.2472 7.57528 15.1151 7.54332 14.9574 7.51349C14.804 7.48366 14.6463 7.46875 14.4844 7.46875C14.0838 7.46875 13.8047 7.5625 13.647 7.75C13.4893 7.93324 13.4105 8.19105 13.4105 8.52344V19H10.6939Z" fill="white"/>
<circle cx="12" cy="12" r="11.8" stroke="white" stroke-width="0.4"/>
</svg>
